<svg width="221" height="75" viewBox="0 0 221 75" fill="none" xmlns="http://www.w3.org/2000/svg">
<path d="M31.328 52V23.712C31.328 22.0907 31.7333 20.6187 32.544 19.296C33.3547 17.9733 34.4213 16.9067 35.744 16.096C37.1093 15.2853 38.5813 14.88 40.16 14.88H60.768V23.264H40.48C40.2667 23.264 40.0747 23.3493 39.904 23.52C39.776 23.648 39.712 23.8187 39.712 24.032V52H31.328Z" fill="white"/>
<path d="M74.4725 52C72.8512 52 71.3578 51.5947 69.9925 50.784C68.6698 49.9733 67.6032 48.9067 66.7925 47.584C66.0245 46.2613 65.6405 44.7893 65.6405 43.168V29.216H94.9525V24.032C94.9525 23.8187 94.8672 23.648 94.6965 23.52C94.5685 23.3493 94.3978 23.264 94.1845 23.264H65.6405V14.88H94.5045C96.1258 14.88 97.5978 15.2853 98.9205 16.096C100.286 16.9067 101.353 17.9733 102.121 19.296C102.931 20.6187 103.336 22.0907 103.336 23.712V52H74.4725ZM74.7925 43.616H94.9525V36.768H74.0245V42.848C74.0245 43.0613 74.0885 43.2533 74.2165 43.424C74.3872 43.552 74.5792 43.616 74.7925 43.616Z" fill="white"/>
<path d="M115.646 65.76V57.312H137.982C138.195 57.312 138.366 57.2267 138.494 57.056C138.665 56.928 138.75 56.7573 138.75 56.544V52H118.27C116.691 52 115.219 51.5947 113.854 50.784C112.531 49.9733 111.465 48.9067 110.654 47.584C109.843 46.2613 109.438 44.7893 109.438 43.168V15.008H117.822V42.848C117.822 43.0613 117.886 43.2533 118.014 43.424C118.185 43.552 118.377 43.616 118.59 43.616H137.982C138.195 43.616 138.366 43.552 138.494 43.424C138.665 43.2533 138.75 43.0613 138.75 42.848V15.008H147.134V56.928C147.134 58.5493 146.75 60.0213 145.982 61.344C145.214 62.7093 144.147 63.776 142.782 64.544C141.459 65.3547 139.987 65.76 138.366 65.76H115.646Z" fill="white"/>
<path d="M161.16 52C159.539 52 158.045 51.5947 156.68 50.784C155.357 49.9733 154.291 48.9067 153.48 47.584C152.712 46.2613 152.328 44.7893 152.328 43.168V29.216H181.64V24.032C181.64 23.8187 181.555 23.648 181.384 23.52C181.256 23.3493 181.085 23.264 180.872 23.264H152.328V14.88H181.192C182.813 14.88 184.285 15.2853 185.608 16.096C186.973 16.9067 188.04 17.9733 188.808 19.296C189.619 20.6187 190.024 22.0907 190.024 23.712V52H161.16ZM161.48 43.616H181.64V36.768H160.712V42.848C160.712 43.0613 160.776 43.2533 160.904 43.424C161.075 43.552 161.267 43.616 161.48 43.616Z" fill="white"/>
<path d="M94.952 36.7677V43.6163H74.7928C74.5795 43.6163 74.3873 43.5519 74.2167 43.4239C74.0887 43.2533 74.0243 43.0611 74.0243 42.8478V36.7677H94.952ZM181.64 36.7677V43.6163H161.48C161.267 43.6163 161.075 43.5519 160.904 43.4239C160.776 43.2533 160.712 43.0611 160.712 42.8478V36.7677H181.64ZM130.75 7.00793H144.328V6.88H181.192V14.88H152.328V23.2638H180.872C181.085 23.2638 181.256 23.3492 181.384 23.5196C181.554 23.6476 181.64 23.819 181.64 24.0323V29.2159H152.328V43.1681C152.328 44.7894 152.712 46.2615 153.48 47.5841C154.291 48.9066 155.357 49.9737 156.68 50.7843C157.96 51.5443 159.352 51.9477 160.857 51.9952L161.16 52.0001H190.024V23.712C190.024 22.0908 189.619 20.6186 188.808 19.296C188.04 17.9734 186.974 16.9065 185.608 16.0958C184.368 15.3358 182.997 14.9323 181.494 14.8849L181.192 14.88V6.88C184.183 6.88004 187.077 7.64117 189.691 9.21886L189.692 9.21691C189.713 9.22943 189.734 9.24338 189.755 9.25597C189.766 9.26271 189.778 9.26874 189.789 9.27551L189.788 9.27648C192.183 10.7188 194.175 12.6763 195.628 15.1153H195.629C195.639 15.1314 195.647 15.1482 195.657 15.1642C195.68 15.2025 195.704 15.2399 195.726 15.2784H195.724C197.275 17.8751 198.024 20.7465 198.024 23.712V60.0001H161.16C159.039 60.0001 156.976 59.6178 155.027 58.8527C154.783 61.0844 154.106 63.2489 152.953 65.2648L152.955 65.2657C152.946 65.2821 152.935 65.2982 152.926 65.3146C152.917 65.3299 152.909 65.3462 152.9 65.3614L152.899 65.3605C151.43 67.9343 149.353 70.0076 146.776 71.4737C144.186 73.0153 141.323 73.7599 138.366 73.7599H107.646V60.0001H74.4725C71.4456 60.0001 68.5365 59.2238 65.9081 57.6632L65.8124 57.6046C63.4137 56.1345 61.4417 54.1634 59.9716 51.7648L59.9217 51.6837L59.8739 51.6007C58.3547 48.9841 57.6405 46.1122 57.6405 43.1681V31.2638H47.7118V60.0001H23.328V23.712C23.328 20.6848 24.1061 17.7543 25.7235 15.1153C27.1936 12.7168 29.1648 10.7456 31.5634 9.27551L31.6112 9.24621L31.66 9.21691C34.2537 7.67703 37.1353 6.88 40.16 6.88V14.88L39.8651 14.8849C38.3977 14.9324 37.0239 15.3359 35.744 16.0958L35.4989 16.2511C34.2889 17.0411 33.3038 18.0561 32.5438 19.296L32.3964 19.546C31.684 20.8034 31.328 22.1922 31.328 23.712V52.0001H39.7118V24.0323C39.7118 23.819 39.7762 23.6476 39.9042 23.5196C40.0535 23.3704 40.2192 23.2863 40.4012 23.2677L40.4803 23.2638H60.7684V14.88H40.16V6.88H94.5048V14.88H65.6405V23.2638H94.1844C94.3976 23.2638 94.5682 23.3492 94.6962 23.5196C94.8668 23.6476 94.952 23.819 94.952 24.0323V29.2159H65.6405V43.1681L65.6454 43.4698C65.6903 44.9725 66.0728 46.344 66.7928 47.5841C67.6035 48.9066 68.6696 49.9737 69.9921 50.7843C71.272 51.5443 72.6649 51.9477 74.1698 51.9952L74.4725 52.0001H103.337V23.712C103.337 22.0908 102.932 20.6186 102.121 19.296C101.353 17.9734 100.286 16.9065 98.9208 16.0958C97.6807 15.3358 96.3091 14.9323 94.8065 14.8849L94.5048 14.88V6.88C96.91 6.88003 99.253 7.37372 101.438 8.38683V7.00793H125.822V35.6163H130.75V7.00793ZM138.75 42.8478C138.75 43.0611 138.665 43.2533 138.494 43.4239L138.39 43.5079C138.278 43.5798 138.142 43.6163 137.982 43.6163H118.59L118.434 43.6036C118.282 43.5797 118.142 43.52 118.014 43.4239C117.918 43.296 117.858 43.1559 117.834 43.004L117.822 42.8478V15.0079H109.438V43.1681C109.438 44.7894 109.844 46.2615 110.654 47.5841C111.465 48.9067 112.532 49.9737 113.854 50.7843C115.22 51.5948 116.692 52.0001 118.27 52.0001H138.75V56.5441C138.75 56.7573 138.665 56.9278 138.494 57.0558C138.366 57.2264 138.195 57.3116 137.982 57.3116H115.646V65.7599H138.366L138.668 65.755C140.17 65.7076 141.542 65.3041 142.782 64.5441C144.147 63.7761 145.214 62.7092 145.982 61.3439C146.75 60.0213 147.134 58.5491 147.134 56.9278V15.0079H138.75V42.8478Z" fill="#E70000"/>
</svg>
